<svg data-v-2cb57da0="" version="1.0" xmlns="http://www.w3.org/2000/svg" xmlns:xlink="http://www.w3.org/1999/xlink" width="100%" height="100%" viewBox="0 0 340.000000 250.000000" preserveAspectRatio="xMidYMid meet" color-interpolation-filters="sRGB" style="margin: auto;"><rect data-v-2cb57da0="" x="0" y="0" width="100%" height="100%" fill="#ffffff" fill-opacity="1" class="background"></rect> <rect data-v-2cb57da0="" x="0" y="0" width="100%" height="100%" fill="url(#watermark)" fill-opacity="1" class="watermarklayer"></rect> <g data-v-2cb57da0="" fill="#1686cb" class="newinitialsvg-g newinitialsvg" transform="translate(6.0814208984375,65.00288772583008)"><g class="tp-name" transform="translate(0,0)"><g class="tp-graph" transform="translate(0, 0)" mask="url(#3069c3cc-d9cf-4bb9-8ce7-04d84ad3d36d)"><polyline data-gra="graph-name" fill-opacity="1" fill="#1686cb" x="0" y="0" width="83.99085000000004" height="84.41610000000004" points="0,0 83.99085000000004,12 83.99085000000004,96.41610000000004 0,108.41610000000004 0,12"></polyline> <g data-gra="path-name" fill="#ffffff" transform="translate(2.9952762268066593,15)"><g transform="scale(1.890000000000001)" fill="#1686cb"><path d="M40.50-2.92L40.50-2.92L37.53-2.92L37.53-14.35L7.56-14.35L7.56-2.92L4.59-2.92L4.59-15.84Q4.59-16.47 5.02-16.88Q5.44-17.28 6.08-17.28L6.08-17.28L39.02-17.28Q39.64-17.28 40.07-16.88Q40.50-16.47 40.50-15.84L40.50-15.84L40.50-2.92ZM39.51-25.65L39.51-25.65L36.85-26.91L38.70-30.73L13.37-30.73Q12.51-30.73 12.06-31.45L12.06-31.45Q11.61-32.17 12.06-32.94L12.06-32.94L14.31-36.99L16.88-35.55L15.84-33.70L41.09-33.70Q41.85-33.70 42.30-32.98L42.30-32.98Q42.75-32.31 42.39-31.54L42.39-31.54L39.51-25.65ZM11.16-32.27L9.49-29.83L2.79-34.38L4.46-36.81L11.16-32.27ZM43.11-20.93L42.25-18.09L26.73-22.72L11.21-18.09L10.35-20.93L25.24-25.38L25.24-29.61L28.21-29.61L28.21-25.38L43.11-20.93ZM11.43-27L4.14-18.22L1.84-20.11L9.18-28.89L11.43-27ZM42.84 1.40L41.98 4.23L22.50-1.62L3.06 4.23L2.21 1.40L21.06-4.27L21.06-12.38L24.03-12.38L24.03-4.27L42.84 1.40Z" transform="translate(-1.845, 36.99)"></path></g></g></g><g transform="translate(87.99085000000004, 0)"><g data-gra="path-name" fill="#1686cb" transform="translate(0,15)"><g transform="scale(1.890000000000001)"><path d="M40.73-11.65L40.73-11.65L32.13-11.65L32.13 2.38Q32.13 3.01 31.72 3.42Q31.32 3.82 30.69 3.82L30.69 3.82L24.30 3.82L24.30 0.90L29.20 0.90L29.20-11.65L20.25-11.65Q19.62-11.65 19.19-12.08Q18.77-12.51 18.77-13.14L18.77-13.14L18.77-28.57Q18.77-29.20 19.19-29.61Q19.62-30.02 20.25-30.02L20.25-30.02L26.82-30.02L28.13-32.94L30.82-31.72L30.06-30.02L40.73-30.02Q41.35-30.02 41.78-29.61Q42.21-29.20 42.21-28.57L42.21-28.57L42.21-13.14Q42.21-12.51 41.78-12.08Q41.35-11.65 40.73-11.65L40.73-11.65ZM13.54 4.14L13.54 4.14L10.71 3.19L13.05-3.96L13.05-34.83Q13.05-35.46 13.48-35.89Q13.90-36.31 14.54-36.31L14.54-36.31L42.66-36.31L42.66-33.34L16.02-33.34L16.02-3.69Q16.02-3.38 15.93-3.24L15.93-3.24L13.54 4.14ZM4.86 4.23L4.86 4.23L2.02 3.28L8.55-16.83L1.48-22.27L3.28-24.61L11.21-18.54Q12.01-17.91 11.70-16.92L11.70-16.92L4.86 4.23ZM12.51-29.34L10.66-27.04L1.98-34.16L3.82-36.41L12.51-29.34ZM39.24-22.18L39.24-27.09L21.73-27.09L21.73-22.18L39.24-22.18ZM21.73-19.26L21.73-14.63L39.24-14.63L39.24-19.26L21.73-19.26ZM24.07-9.67L21.33 4.18L18.45 3.60L21.20-10.26L24.07-9.67ZM42.52 3.60L39.64 4.18L36.90-9.67L39.78-10.26L42.52 3.60Z" transform="translate(-1.4849999999999999, 36.99)"></path></g></g></g><g transform="translate(169.81160000000006, 0)"><g data-gra="path-name" fill="#1686cb" transform="translate(0,15)"><g transform="scale(1.890000000000001)"><path d="M21.73 3.82L21.73 3.82L12.11 3.82L12.11 0.85L20.29 0.85L20.29-36.27L23.22-36.27L23.22 2.34Q23.22 2.97 22.79 3.40Q22.36 3.82 21.73 3.82L21.73 3.82ZM11.21-33.25L4.86 0.22L1.98-0.27L8.32-33.84L11.21-33.25ZM43.02-0.27L40.14 0.22L33.80-33.25L36.67-33.84L43.02-0.27Z" transform="translate(-1.98, 36.99)"></path></g></g></g><g transform="translate(251.3772000000001, 0)"><g data-gra="path-name" fill="#1686cb" transform="translate(0,15)"><g transform="scale(1.890000000000001)"><path d="M42.66-28.39L42.66-28.39L30.02-28.39L30.02-23.40L40.63-23.40Q41.27-23.40 41.69-22.97Q42.12-22.54 42.12-21.91L42.12-21.91L42.12 2.52Q42.12 3.15 41.69 3.58Q41.27 4.00 40.63 4.00L40.63 4.00L20.75 4.00Q20.11 4.00 19.69 3.58Q19.26 3.15 19.26 2.52L19.26 2.52L19.26-21.91Q19.26-22.54 19.69-22.97Q20.11-23.40 20.75-23.40L20.75-23.40L27.04-23.40L27.04-36.18L30.02-36.18L30.02-31.36L42.66-31.36L42.66-28.39ZM17.68-34.06L17.68-31.09L2.34-31.09L2.34-34.06L8.69-34.06L8.32-36.05L11.25-36.59L11.74-34.06L17.68-34.06ZM17.82 2.97L2.52 4.50L2.21 1.57L11.83 0.58L13.99-28.66L16.96-28.44L14.80 0.27L17.55 0L17.82 2.97ZM7.83-1.17L4.91-0.99L3.10-28.48L6.08-28.66L7.83-1.17ZM22.18-20.43L22.18 1.03L39.15 1.03L39.15-20.43L22.18-20.43Z" transform="translate(-2.205, 36.99)"></path></g></g></g></g> <g data-gra="path-slogan" fill-rule="" class="tp-slogan" fill="#1686cb" transform="translate(5,111.41609954833984)"><rect x="0" height="1" y="3.7899999618530273" width="154.9435796737671"></rect> <rect height="1" y="3.7899999618530273" width="126.94357967376709" x="190.8935785293579"></rect> <g transform="translate(157.9435796737671,0)"><g transform="scale(1)"><path d="M1.73-1.03L7.03-1.03L7.03 0L0.28 0L0.28-0.94L5.53-7.59L0.66-7.59L0.66-8.58L7.03-8.58L7.03-7.59L1.73-1.03ZM15.09-8.58L11.86-3.47L11.86 0L10.69 0L10.69-3.47L7.45-8.58L8.81-8.58L11.25-4.45L13.73-8.58L15.09-8.58ZM22.88-8.58L19.97-4.41L23.02 0L21.56 0L19.22-3.52L16.88 0L15.47 0L18.56-4.41L15.66-8.58L17.11-8.58L19.27-5.30L21.47-8.58L22.88-8.58ZM24.94-1.03L30.23-1.03L30.23 0L23.48 0L23.48-0.94L28.73-7.59L23.86-7.59L23.86-8.58L30.23-8.58L30.23-7.59L24.94-1.03Z" transform="translate(-0.28125, 8.578125)"></path></g></g></g></g><mask id="3069c3cc-d9cf-4bb9-8ce7-04d84ad3d36d"><polyline data-gra="graph-name" fill-opacity="1" x="0" y="0" width="83.99085000000004" height="84.41610000000004" points="0,0 83.99085000000004,12 83.99085000000004,96.41610000000004 0,108.41610000000004 0,12" fill="white"></polyline> <g data-gra="path-name" transform="translate(2.9952762268066593,15)" fill="black"><g transform="scale(1.890000000000001)"><path d="M40.50-2.92L40.50-2.92L37.53-2.92L37.53-14.35L7.56-14.35L7.56-2.92L4.59-2.92L4.59-15.84Q4.59-16.47 5.02-16.88Q5.44-17.28 6.08-17.28L6.08-17.28L39.02-17.28Q39.64-17.28 40.07-16.88Q40.50-16.47 40.50-15.84L40.50-15.84L40.50-2.92ZM39.51-25.65L39.51-25.65L36.85-26.91L38.70-30.73L13.37-30.73Q12.51-30.73 12.06-31.45L12.06-31.45Q11.61-32.17 12.06-32.94L12.06-32.94L14.31-36.99L16.88-35.55L15.84-33.70L41.09-33.70Q41.85-33.70 42.30-32.98L42.30-32.98Q42.75-32.31 42.39-31.54L42.39-31.54L39.51-25.65ZM11.16-32.27L9.49-29.83L2.79-34.38L4.46-36.81L11.16-32.27ZM43.11-20.93L42.25-18.09L26.73-22.72L11.21-18.09L10.35-20.93L25.24-25.38L25.24-29.61L28.21-29.61L28.21-25.38L43.11-20.93ZM11.43-27L4.14-18.22L1.84-20.11L9.18-28.89L11.43-27ZM42.84 1.40L41.98 4.23L22.50-1.62L3.06 4.23L2.21 1.40L21.06-4.27L21.06-12.38L24.03-12.38L24.03-4.27L42.84 1.40Z" transform="translate(-1.845, 36.99)"></path></g></g></mask><defs v-gra="od"></defs></svg>