<?xml version="1.0" standalone="no"?><!DOCTYPE svg PUBLIC "-//W3C//DTD SVG 1.1//EN" "http://www.w3.org/Graphics/SVG/1.1/DTD/svg11.dtd"><svg t="1659607459888" class="icon" viewBox="0 0 1024 1024" version="1.1" xmlns="http://www.w3.org/2000/svg" p-id="4463" xmlns:xlink="http://www.w3.org/1999/xlink" width="32" height="32"><defs><style type="text/css"></style></defs><path d="M904.533333 981.333333H102.4c-59.733333 0-102.4-51.2-102.4-113.777777v-711.111112c0-62.577778 42.666667-113.777778 102.4-113.777777H398.222222c14.222222 0 28.444444 11.377778 31.288889 25.6l31.288889 136.533333h443.733333c59.733333 0 119.466667 51.2 119.466667 113.777778v551.822222c0 59.733333-56.888889 110.933333-119.466667 110.933333z m88.177778-662.755555c0-51.2-48.355556-82.488889-88.177778-82.488889H460.8c-14.222222 0-28.444444-11.377778-31.288889-25.6L398.222222 73.955556H102.4C62.577778 73.955556 28.444444 108.088889 28.444444 156.444444v713.955556c0 51.2 31.288889 82.488889 73.955556 82.488889h802.133333c45.511111 0 88.177778-34.133333 88.177778-82.488889V318.577778zM884.622222 910.222222h-164.977778c-8.533333 0-14.222222-5.688889-14.222222-14.222222s5.688889-14.222222 14.222222-14.222222h164.977778c17.066667 0 36.977778-2.844444 36.977778-39.822222v-56.888889c0-8.533333 5.688889-14.222222 14.222222-14.222223s17.066667 8.533333 17.066667 17.066667v56.888889c2.844444 42.666667-28.444444 65.422222-68.266667 65.422222z m51.2-184.888889c-2.844444 0-8.533333-2.844444-11.377778-5.688889-5.688889-5.688889-5.688889-17.066667 0-22.755555 5.688889-5.688889 17.066667-5.688889 22.755556 0s5.688889 17.066667 0 22.755555c-2.844444 2.844444-8.533333 5.688889-11.377778 5.688889zM950.044444 142.222222H517.688889c-8.533333 0-14.222222-5.688889-14.222222-14.222222s5.688889-14.222222 14.222222-14.222222h432.355555c8.533333 0 17.066667 5.688889 17.066667 14.222222s-8.533333 14.222222-17.066667 14.222222z" fill="#1296db" p-id="4464"></path></svg>